<?xml version="1.0" encoding="UTF-8" standalone="no"?>

<svg xmlns="http://www.w3.org/2000/svg" width="800" height="600">
  
  <g transform = "rotate(155.000000, 475.000000, 200.000000)">
  
  <rect  x="425.000031" y="19.999989" width="100.000000" height="30.000000" style="fill:rgb(200,200,0);stroke-width:3;stroke:rgb(0,0,0)" />  
  
  <rect  x="460.000031" y="50.000000" width="30.000000" height="150.000000" style="fill:rgb(200,200,200);stroke-width:3;stroke:rgb(0,0,0)" />    
  </g>  
  <defs>
    <linearGradient id="grad1" x1="0%" y1="0%" x2="0%" y2="100%">
      <stop offset="0%" style="stop-color:rgb(255,0,0);stop-opacity:1" />
      <stop offset="100%" style="stop-color:rgb(255,255,0);stop-opacity:1" />
    </linearGradient>
  </defs>
  
  <rect  x="325.000000" y="200.000000" width="150.000000" height="250.000000" style="fill:url(#grad1);stroke-width:3;stroke:rgb(0,0,0)" />    
  
  <circle cx="325.000000" cy="450.000000" r="50.000000" stroke="black" stroke-width="3" fill="grey" />    
  
  <circle cx="475.000000" cy="450.000000" r="50.000000" stroke="black" stroke-width="3" fill="grey" />    

  <circle cx="475.000000" cy="200.000000" r="18.750000" stroke="black" stroke-width="3" fill="grey" />    
  
  
  
  <g transform = "rotate(155.000000, 475.000000, 200.000000)">

  <text  x="475.000031" y="-10.000011" fill='black' dominant-baseline='middle' text-anchor='middle'>100.0</text>
  <rect  x="425.000031" y="-0.000011" width="100.000000" height="3" style="stroke-width:0;stroke:rgb(200,200,200)" />  

  <text  x="430.000031" y="125.000000" fill='black' dominant-baseline='middle' text-anchor='middle' transform ="rotate(270,430.000031,125.000000)">150.0</text>
  <rect  x="440.000031" y="50.000000" width="3" height="150.000000" style="stroke-width:0;stroke:rgb(200,200,200)" />  
  </g>
  <text  x="255.000000" y="325.000000" fill='black' dominant-baseline='middle' text-anchor='middle' transform ="rotate(270,255.000000,325.000000)">250.0</text>
  <rect  x="265.000000" y="200.000000" width="3" height="249.000000" style="stroke-width:0;stroke:rgb(200,200,200)" />  
  <g transform = "rotate(270,325.000000,510.000000)" >
  <text  x="315.000000" y="585.000000" fill='black' dominant-baseline='middle' text-anchor='middle' transform ="rotate(90,315.000000,585.000000)">150.0</text>
  <rect  x="325.000000" y="510.000000" width="3" height="150.000000" style="stroke-width:0;stroke:rgb(200,200,200)" />  
  </g>  

  <text  x="255.000000" y="475.000000" fill='black' dominant-baseline='middle' text-anchor='middle' transform ="rotate(270,255.000000,475.000000)">50.00</text>
  <rect  x="265.000000" y="451.000000" width="3" height="49.000000" style="stroke-width:0;stroke:rgb(200,200,200)" />  

</svg>