<?xml version="1.0" encoding="UTF-8" standalone="no"?>

<svg xmlns="http://www.w3.org/2000/svg" width="800" height="600">
  
  <g transform = "rotate(60.000000, 475.000000, 220.000000)">  <rect  x="435.000000" y="76.000000" width="80.000000" height="24.000000" style="fill:rgb(200,200,0);stroke-width:3;stroke:rgb(0,0,0)" />  
  
  <rect  x="463.000000" y="100.000000" width="24.000000" height="120.000000" style="fill:rgb(200,200,200);stroke-width:3;stroke:rgb(0,0,0)" />    
  </g>  
  <defs>
    <linearGradient id="grad1" x1="0%" y1="0%" x2="0%" y2="100%">
      <stop offset="0%" style="stop-color:rgb(255,0,0);stop-opacity:1" />
      <stop offset="100%" style="stop-color:rgb(255,255,0);stop-opacity:1" />
    </linearGradient>
  </defs>
  <rect  x="325.000000" y="220.000000" width="150.000000" height="250.000000" style="fill:url(#grad1);stroke-width:3;stroke:rgb(0,0,0)" />    
  
  <circle cx="325.000000" cy="470.000000" r="30.000000" stroke="black" stroke-width="3" fill="grey" />    
  
  <circle cx="475.000000" cy="470.000000" r="30.000000" stroke="black" stroke-width="3" fill="grey" />    

  <circle cx="475.000000" cy="220.000000" r="15.000000" stroke="black" stroke-width="3" fill="grey" />    
  
  <g transform = "rotate(60.000000, 475.000000, 220.000000)">
  <text  x="475.000000" y="46.000000" fill='black' dominant-baseline='middle' text-anchor='middle'>80.00</text>
  <rect  x="435.000000" y="56.000000" width="80.000000" height="3" style="stroke-width:0;stroke:rgb(200,200,200)" />  

  <text  x="433.000000" y="160.000000" fill='black' dominant-baseline='middle' text-anchor='middle' transform ="rotate(270,433.000000,160.000000)">120.0</text>
  <rect  x="443.000000" y="100.000000" width="3" height="120.000000" style="stroke-width:0;stroke:rgb(200,200,200)" />  
  </g>
  <text  x="275.000000" y="345.000000" fill='black' dominant-baseline='middle' text-anchor='middle' transform ="rotate(270,275.000000,345.000000)">250.0</text>
  <rect  x="285.000000" y="220.000000" width="3" height="249.000000" style="stroke-width:0;stroke:rgb(200,200,200)" />  
  <g transform = "rotate(270,325.000000,510.000000)" >
  <text  x="315.000000" y="585.000000" fill='black' dominant-baseline='middle' text-anchor='middle' transform ="rotate(90,315.000000,585.000000)">150.0</text>
  <rect  x="325.000000" y="510.000000" width="3" height="150.000000" style="stroke-width:0;stroke:rgb(200,200,200)" />  
  </g>  

  <text  x="275.000000" y="485.000000" fill='black' dominant-baseline='middle' text-anchor='middle' transform ="rotate(270,275.000000,485.000000)">30.00</text>
  <rect  x="285.000000" y="471.000000" width="3" height="29.000000" style="stroke-width:0;stroke:rgb(200,200,200)" />  

</svg>