<?xml version="1.0" encoding="UTF-8" standalone="no"?>

<svg xmlns="http://www.w3.org/2000/svg" width="800" height="600">
  
  <g transform = "rotate(320.000000, 475.000000, 210.000000)">
  
  <rect  x="424.999939" y="60.000031" width="100.000000" height="25.000000" style="fill:rgb(200,200,0);stroke-width:3;stroke:rgb(0,0,0)" />  
  
  <rect  x="462.499969" y="85.000015" width="25.000000" height="125.000000" style="fill:rgb(200,200,200);stroke-width:3;stroke:rgb(0,0,0)" />    
  </g>  
  <defs>
    <linearGradient id="grad1" x1="0%" y1="0%" x2="0%" y2="100%">
      <stop offset="0%" style="stop-color:rgb(255,0,0);stop-opacity:1" />
      <stop offset="100%" style="stop-color:rgb(255,255,0);stop-opacity:1" />
    </linearGradient>
  </defs>
  
  <rect  x="325.000000" y="210.000000" width="150.000000" height="250.000000" style="fill:url(#grad1);stroke-width:3;stroke:rgb(0,0,0)" />    
  
  <circle cx="325.000000" cy="460.000000" r="40.000000" stroke="black" stroke-width="3" fill="grey" />    
  
  <circle cx="475.000000" cy="460.000000" r="40.000000" stroke="black" stroke-width="3" fill="grey" />    

  <circle cx="475.000000" cy="210.000000" r="15.625000" stroke="black" stroke-width="3" fill="grey" />    
  
  
  
  <g transform = "rotate(320.000000, 475.000000, 210.000000)">

  <text  x="474.999939" y="30.000031" fill='black' dominant-baseline='middle' text-anchor='middle'>100.0</text>
  <rect  x="424.999939" y="40.000031" width="100.000000" height="3" style="stroke-width:0;stroke:rgb(200,200,200)" />  

  <text  x="517.500000" y="147.500015" fill='black' dominant-baseline='middle' text-anchor='middle' transform ="rotate(90,517.500000,147.500015)">125.0</text>
  <rect  x="507.499969" y="85.000015" width="3" height="125.000000" style="stroke-width:0;stroke:rgb(200,200,200)" />  
  </g>
  <text  x="265.000000" y="335.000000" fill='black' dominant-baseline='middle' text-anchor='middle' transform ="rotate(270,265.000000,335.000000)">250.0</text>
  <rect  x="275.000000" y="210.000000" width="3" height="249.000000" style="stroke-width:0;stroke:rgb(200,200,200)" />  
  <g transform = "rotate(270,325.000000,510.000000)" >
  <text  x="315.000000" y="585.000000" fill='black' dominant-baseline='middle' text-anchor='middle' transform ="rotate(90,315.000000,585.000000)">150.0</text>
  <rect  x="325.000000" y="510.000000" width="3" height="150.000000" style="stroke-width:0;stroke:rgb(200,200,200)" />  
  </g>  

  <text  x="265.000000" y="480.000000" fill='black' dominant-baseline='middle' text-anchor='middle' transform ="rotate(270,265.000000,480.000000)">40.00</text>
  <rect  x="275.000000" y="461.000000" width="3" height="39.000000" style="stroke-width:0;stroke:rgb(200,200,200)" />  

</svg>